<svg xmlns="http://www.w3.org/2000/svg" viewBox="0 0 32 32">
  <defs>
    <linearGradient id="g" x1="0%" y1="0%" x2="100%" y2="100%">
      <stop offset="0%" stop-color="#1c3f88"/>
      <stop offset="100%" stop-color="#3d7fff"/>
    </linearGradient>
  </defs>
  <rect width="32" height="32" rx="8" fill="#0c0e16"/>
  <circle cx="16" cy="16" r="11" fill="url(#g)"/>
  <path d="M11.4 14.5a7.8 7.8 0 0 0 3.3 3.3l1.15-1.15c.15-.15.37-.2.56-.13.6.2 1.26.3 1.93.3a.5.5 0 0 1 .5.5v1.78a.5.5 0 0 1-.5.5A8.6 8.6 0 0 1 9.72 11.1a.5.5 0 0 1 .5-.5h1.78a.5.5 0 0 1 .5.5c0 .67.1 1.32.3 1.93.07.19.02.41-.13.56l-1.27 1.41z" fill="white"/>
</svg>